<svg id="Capa_1" enable-background="new 0 0 512.013 512.013" height="512" viewBox="0 0 512.013 512.013" width="512"
     xmlns="http://www.w3.org/2000/svg">
    <g>
        <g class="fists" fill="#a2ddfd">
            <path d="m381.76 256.216c-12.766 0-23.115-10.349-23.115-23.115s10.349-23.115 23.115-23.115c11.914 0 52.89-3.402 79.972-47.165 6.717-10.856 20.964-14.212 31.82-7.492 10.856 6.718 14.211 20.964 7.492 31.82-28.199 45.568-74.559 69.067-119.284 69.067z"/>
            <path d="m19.793 332.643c-11.278-5.983-15.57-19.976-9.587-31.253 14.705-27.717 52.348-69.449 77.458-85.872 10.685-6.988 25.011-3.991 31.998 6.693 6.988 10.684 3.992 25.01-6.692 31.998-18.538 12.125-50.947 48.157-61.924 68.849-5.953 11.219-19.922 15.595-31.253 9.585z"/>
            <path d="m19.793 332.643c-11.278-5.983-15.57-19.976-9.587-31.253 14.705-27.717 52.348-69.449 77.458-85.872 10.685-6.988 25.011-3.991 31.998 6.693 6.988 10.684 3.992 25.01-6.692 31.998-18.538 12.125-50.947 48.157-61.924 68.849-5.953 11.219-19.922 15.595-31.253 9.585z"/>
            <path d="m154.613 439.962c-1.951-14.776-6.931-65.609 10.893-99.319 5.967-11.285 19.953-15.598 31.239-9.63 11.286 5.967 15.597 19.954 9.63 31.239-8.461 16.003-9.005 48.364-5.93 71.659 1.671 12.657-7.234 24.271-19.891 25.942-12.684 1.675-24.274-7.26-25.941-19.891z"/>
            <path d="m323.455 460.055c-14.042 0-24.768-12.339-22.946-26.143 3.075-23.297 2.531-55.658-5.93-71.659-5.967-11.286-1.656-25.272 9.63-31.24 11.284-5.966 25.272-1.657 31.24 9.63 17.823 33.707 12.844 84.542 10.894 99.319-1.535 11.63-11.467 20.093-22.888 20.093z"/>
        </g>
        <path d="m191.721 89.683c-28.927-27.364-69.639-36.033-93.157-37.687-8.261-.581-15.443 5.635-15.968 13.9-2.366 37.264 13.515 88.782 31.053 103.815z"
              fill="#8f8bd5"/>
        <path d="m86.545 56.734c-2.254 2.421-3.722 5.599-3.949 9.163-2.366 37.264 13.515 88.782 31.053 103.815l41.712-42.757c-19.025-38.107-49.149-59.738-68.816-70.221z"
              fill="#eda1ab"/>
        <path d="m309.234 89.683c28.927-27.364 69.639-36.033 93.157-37.687 8.261-.581 15.443 5.635 15.968 13.9 2.365 37.264-13.515 88.782-31.053 103.815z"
              fill="#8f8bd5"/>
        <path d="m414.41 56.734c2.254 2.421 3.722 5.599 3.949 9.163 2.365 37.264-13.515 88.782-31.053 103.815l-41.712-42.757c19.025-38.107 49.149-59.738 68.816-70.221z"
              fill="#eda1ab"/>
        <path d="m461.732 162.821c-27.082 43.763-68.058 47.165-79.972 47.165-12.766 0-23.115 10.349-23.115 23.115s10.349 23.116 23.115 23.116c25.38 0 51.282-7.576 74.097-22.449-.681-5.012-1.567-10.078-2.657-15.191 3.712-2.806 7.234-5.925 10.555-9.349 8.869-9.145 12.541-22.039 9.824-34.489-1.351-6.188-4.183-11.817-8.144-16.488-1.393 1.33-2.643 2.856-3.703 4.57z"
              fill="#7acdf9"/>
        <path d="m304.208 331.013c-11.286 5.968-15.597 19.954-9.63 31.24 8.461 16.001 9.005 48.363 5.93 71.659-.075.564-.121 1.125-.154 1.684 12.239-2.669 24.191-6.307 35.659-10.886 3.9 1.051 7.783 1.908 11.644 2.587 1.711-21.638 2.075-59.638-12.21-86.654-5.967-11.286-19.954-15.596-31.239-9.63z"
              fill="#7acdf9"/>
        <path d="m196.746 331.013c-11.286-5.968-25.273-1.655-31.239 9.63-14.285 27.017-13.921 65.015-12.21 86.653 3.861-.679 7.744-1.536 11.644-2.587 11.468 4.579 23.42 8.217 35.659 10.886-.033-.559-.079-1.12-.154-1.684-3.075-23.295-2.531-55.656 5.93-71.659 5.967-11.285 1.656-25.272-9.63-31.239z"
              fill="#7acdf9"/>
        <path d="m87.665 215.517c-13.022 8.517-29.412 23.845-44.228 40.491-.009.697-.03 1.398-.03 2.092 0 20.23 3.723 40.096 11.054 59.102 13.217-21.054 41.618-51.947 58.509-62.994 10.684-6.988 13.681-21.314 6.692-31.998-6.986-10.684-21.312-13.681-31.997-6.693z"
              fill="#7acdf9"/>
        <path class="body" d="m250.478 410.974c30.357 0 58.926-6.6 83.897-18.221 27.972 10.153 51.975 7.5 69.61-2.905 5.612-3.311 8.105-10.176 5.888-16.303-3.136-8.665-4.119-21.984-2.476-35.036.947-7.521 3.272-14.796 6.562-21.625 2.239-4.649 3.592-8.053 3.592-8.053 6.467-15.876 9.997-32.947 9.997-50.732 0-17.321-3.342-35.925-9.491-54.557 8.347-2.731 16.645-7.448 24.164-15.203 3.969-4.094 2.434-10.901-2.88-12.968-22.346-8.69-54.144-35.995-64.433-49.552 0 0-48.833-67.07-124.43-67.07s-124.43 67.07-124.43 67.07c-10.289 13.557-42.087 40.861-64.433 49.552-5.314 2.067-6.85 8.874-2.881 12.968 7.519 7.755 15.817 12.472 24.164 15.203-6.148 18.632-9.491 37.236-9.491 54.557 0 17.785 3.53 34.856 9.997 50.732 0 0 1.353 3.404 3.592 8.053 3.29 6.829 5.615 14.104 6.562 21.625 1.643 13.052.661 26.371-2.476 35.036-2.217 6.127.276 12.992 5.888 16.303 17.635 10.405 41.638 13.058 69.61 2.905 24.972 11.622 53.541 18.221 83.898 18.221z"
              fill="#b39bdb"/>
        <g>
            <g fill="#fff">
                <ellipse cx="177.63" cy="157.763" rx="28.919" ry="23.03"/>
                <ellipse cx="334.383" cy="157.763" rx="28.919" ry="23.03"/>
            </g>
        </g>
        <path d="m330.757 211.744v97.085c0 4.021 3.26 7.28 7.28 7.28 4.021 0 7.28-3.26 7.28-7.28v-97.085c0-4.021-3.26-7.28-7.28-7.28s-7.28 3.259-7.28 7.28zm-54.495-58.025c2.721-3.122 2.396-7.86-.727-10.582-3.124-2.721-7.861-2.396-10.582.727-2.259 2.593-5.521 4.08-8.947 4.08-3.427 0-6.688-1.487-8.947-4.08-2.723-3.123-7.458-3.448-10.582-.727-3.123 2.722-3.448 7.46-.727 10.582 5.109 5.862 12.492 9.225 20.256 9.225 7.764-.001 15.146-3.363 20.256-9.225zm-51.596 176.427c4.021 0 7.28-3.26 7.28-7.28v-98.644c0-4.021-3.26-7.28-7.28-7.28-4.021 0-7.28 3.26-7.28 7.28v40.35h-53.702v-40.35c0-4.021-3.26-7.28-7.28-7.28-4.021 0-7.28 3.26-7.28 7.28v98.644c0 4.021 3.26 7.28 7.28 7.28 4.021 0 7.28-3.26 7.28-7.28v-43.733h53.702v43.733c0 4.021 3.259 7.28 7.28 7.28zm-36.447-197.443c0-3.455 2.811-6.265 6.265-6.265 3.455 0 6.265 2.811 6.265 6.265 0 4.142 3.358 7.5 7.5 7.5s7.5-3.358 7.5-7.5c0-11.726-9.54-21.265-21.265-21.265s-21.265 9.539-21.265 21.265c0 4.142 3.358 7.5 7.5 7.5s7.5-3.358 7.5-7.5zm149.708 214.488c4.188 0 7.583-3.395 7.583-7.583s-3.395-7.583-7.583-7.583-7.583 3.395-7.583 7.583 3.394 7.583 7.583 7.583zm-20.398-235.753c-11.726 0-21.265 9.539-21.265 21.265 0 4.142 3.358 7.5 7.5 7.5s7.5-3.358 7.5-7.5c0-3.455 2.811-6.265 6.265-6.265 3.455 0 6.265 2.811 6.265 6.265 0 4.142 3.358 7.5 7.5 7.5s7.5-3.358 7.5-7.5c0-11.726-9.54-21.265-21.265-21.265zm179.97 37.513c-14.384-8.903-33.238-4.47-42.144 9.923-2.7 4.363-5.665 8.418-8.831 12.184-1.309-1.119-2.81-2.032-4.465-2.676-9.549-3.714-21.275-11.317-32.091-19.699 11.027-24.762 17.476-58.055 15.876-83.262-.773-12.192-11.337-21.793-23.979-20.906-13.995.984-48.99 5.495-80.278 25.981-45.078-24.871-94.368-26.401-142.219 0-31.288-20.486-66.282-24.997-80.278-25.981-12.58-.882-23.202 8.653-23.979 20.906-.213 3.346-.29 6.877-.23 10.496.069 4.141 3.502 7.44 7.623 7.374 4.142-.069 7.443-3.482 7.375-7.623-.048-2.874.007-5.667.151-8.333 13.077 7.876 29.221 20.208 43.364 38.623-16.163 16.631-11.42 16.01-30.357 32.75-3.593-8.811-6.705-18.924-8.99-29.338-.887-4.045-4.883-6.603-8.933-5.718-4.046.888-6.606 4.887-5.718 8.933 2.837 12.932 6.891 25.512 11.592 36.099-10.816 8.382-22.543 15.986-32.093 19.7-10.322 4.014-13.237 17.246-5.546 25.179 5.96 6.146 12.768 10.977 20.305 14.415-1.071 3.627-2.025 7.227-2.875 10.799-25.308 20.86-54.476 55.118-67.199 79.099-7.93 14.947-2.252 33.463 12.698 41.393 14.942 7.926 33.496 2.186 41.393-12.697 3.276-6.175 8.831-14.189 15.812-22.892 5.871 17.22 10.817 21.33 12.634 35.766 1.463 11.621.644 24.003-2.086 31.547-3.444 9.516.395 20.162 9.129 25.315 14.876 8.777 32.736 11.957 51.815 9.477-.056 15.332 1.287 28.222 2.202 35.158 2.003 15.171 15.039 26.612 30.323 26.612 18.536 0 32.798-16.31 30.382-34.625-.795-6.018-1.309-12.577-1.525-19.107 29.06 6.194 59.134 6.204 88.242 0-.216 6.53-.73 13.088-1.525 19.107-2.415 18.301 11.832 34.625 30.382 34.625 15.285 0 28.321-11.44 30.323-26.612.915-6.935 2.255-19.828 2.199-35.158 19.081 2.481 36.941-.699 51.819-9.477 8.733-5.153 12.572-15.8 9.128-25.315-2.73-7.543-3.549-19.926-2.086-31.549.099-.787.215-1.57.348-2.351.694-4.083-2.054-7.956-6.137-8.651-4.088-.691-7.957 2.054-8.651 6.137-.169.995-.317 1.994-.443 2.994-1.79 14.222-.719 28.624 2.865 38.525.99 2.736-.123 5.802-2.646 7.292-17.1 10.088-39.559 10.91-63.24 2.315-1.867-.677-3.923-.588-5.724.25-50.037 23.286-111.148 23.416-161.464 0-1.8-.838-3.859-.927-5.724-.25-23.682 8.596-46.141 7.774-63.24-2.315-2.524-1.489-3.637-4.555-2.646-7.291 3.584-9.902 4.655-24.304 2.865-38.526-1.874-14.879-7.438-23.563-10.649-31.57-13.507-33.154-11.506-66.242-.33-100.109 1.3-3.937-.847-8.188-4.79-9.478-7.989-2.615-15.093-7.088-21.112-13.296-.228-.235-.113-.63.214-.758 22.438-8.726 56.47-36.673 67.778-52.127.466-.64 47.407-63.984 118.367-63.984 70.758 0 117.903 63.35 118.367 63.984 10.024 13.931 44.049 42.899 67.777 52.127.324.126.445.52.214.758-6.019 6.208-13.122 10.681-21.111 13.296-3.941 1.29-6.09 5.539-4.79 9.478 10.321 31.278 12.928 62.136 2.233 93.275-1.346 3.918.74 8.184 4.657 9.529 3.916 1.345 8.184-.74 9.529-4.657 5.644-16.434 8.187-33.423 7.602-50.893 29.793-12.1 54.768-33.455 72.464-62.053 8.903-14.387 4.467-33.238-9.923-42.144zm-453.078 170.59c-4.035 7.606-13.507 10.511-21.113 6.476-7.623-4.044-10.522-13.488-6.476-21.112 9.538-17.978 29.9-43.101 49.879-62.343-1.479 14.632-.967 28.803 1.984 43.42-10.768 12.52-19.53 24.617-24.274 33.559zm263.523 115.353c1.049-7.943 1.637-16.44 1.748-24.876 8.599-2.521 16.979-5.591 25.052-9.192 2.076.696 4.145 1.322 6.206 1.892.272 16.522-1.297 30.599-2.044 36.262-1.022 7.739-7.665 13.575-15.452 13.575-9.711 0-16.713-8.543-15.51-17.661zm-147.94-32.176c2.061-.57 4.13-1.196 6.206-1.892 8.073 3.601 16.453 6.671 25.052 9.192.111 8.436.7 16.933 1.749 24.876 1.202 9.108-5.786 17.662-15.511 17.662-7.788 0-14.431-5.836-15.452-13.574-.747-5.664-2.316-19.742-2.044-36.264zm-15.715-307.189c-12.077-15.41-25.39-26.844-37.369-35.13 13.491 1.79 36.506 6.524 58.116 18.909-7.077 4.811-13.896 10.116-20.747 16.221zm191.628-16.223c21.611-12.385 44.627-17.118 58.119-18.907-11.979 8.285-25.292 19.72-37.369 35.13-6.879-6.129-13.701-11.431-20.75-16.223zm31.643 26.651c14.144-18.415 30.288-30.747 43.364-38.623 1.172 21.628-4.013 49.524-12.993 71.385-19.064-16.851-14.196-16.119-30.371-32.762zm127.106 77.245c-15.133 24.455-36.108 43.015-61.029 54.18-1.266-9.559-3.379-19.384-6.337-29.406 7.538-3.439 14.345-8.268 20.305-14.415 1.453-1.499 2.557-3.248 3.292-5.131 6.412-6.295 12.202-13.564 17.213-21.662 4.538-7.335 14.154-9.606 21.495-5.061 3.547 2.195 6.027 5.64 6.983 9.7.956 4.058.273 8.248-1.922 11.795zm-217.161 146.944c4.021 0 7.28-3.26 7.28-7.28v-98.644c0-4.021-3.26-7.28-7.28-7.28-4.021 0-7.28 3.26-7.28 7.28v98.644c-.001 4.021 3.259 7.28 7.28 7.28z"/>
    </g>
</svg>